<?xml version="1.0" encoding="iso-8859-1"?>
<!-- Uploaded to: SVG Repo, www.svgrepo.com, Generator: SVG Repo Mixer Tools -->
<svg version="1.1" id="Capa_1" xmlns="http://www.w3.org/2000/svg" xmlns:xlink="http://www.w3.org/1999/xlink" 
	 viewBox="0 0 460.98 460.98" xml:space="preserve">
<g>
	<g id="XMLID_5_">
		<g>
			
				<rect x="210.796" y="243.51" transform="matrix(0.7071 -0.7071 0.7071 0.7071 -108.3426 235.3283)" style="fill:#8AD1D6;" width="38.198" height="9.871"/>
			<path style="fill:#89B0D3;" d="M266.62,258.16c7.38,7.37,7.38,19.38,0,26.76L108.98,442.55c-6.89,6.9-18.11,6.9-25,0L79,437.57
				c-1.72-1.72-2.67-4-2.67-6.43c0-2.44,0.95-4.72,2.67-6.44l177.08-177.08l0.5,0.49L266.62,258.16z M257.96,278.85
				c2.54-2.54,2.54-6.65,0-9.19c-2.54-2.54-6.65-2.54-9.19,0c-2.54,2.54-2.54,6.65,0,9.19c1.27,1.27,2.93,1.9,4.6,1.9
				C255.03,280.75,256.69,280.12,257.96,278.85z M238.69,298.12c2.54-2.54,2.54-6.65,0-9.19c-2.54-2.54-6.65-2.54-9.19,0
				c-2.54,2.54-2.54,6.65,0,9.19c1.27,1.27,2.93,1.9,4.59,1.9C235.76,300.02,237.42,299.39,238.69,298.12z M219.42,317.39
				c2.54-2.54,2.54-6.65,0-9.19c-2.54-2.54-6.65-2.54-9.19,0c-2.54,2.54-2.54,6.65,0,9.19c1.27,1.27,2.93,1.9,4.59,1.9
				C216.49,319.29,218.15,318.66,219.42,317.39z M200.15,336.66c2.54-2.54,2.54-6.65,0-9.19c-2.54-2.54-6.65-2.54-9.2,0
				c-2.53,2.54-2.53,6.65,0,9.19c1.27,1.27,2.94,1.9,4.6,1.9C197.22,338.56,198.88,337.93,200.15,336.66z M180.88,355.93
				c2.54-2.54,2.54-6.65,0-9.19c-2.54-2.54-6.66-2.54-9.19,0c-2.54,2.54-2.54,6.65,0,9.19c1.27,1.27,2.93,1.91,4.59,1.91
				C177.95,357.84,179.61,357.2,180.88,355.93z M161.61,375.2c2.53-2.54,2.53-6.65,0-9.19c-2.54-2.54-6.66-2.54-9.2,0
				c-2.53,2.54-2.53,6.65,0,9.19c1.27,1.27,2.94,1.91,4.6,1.91S160.34,376.47,161.61,375.2z M142.34,394.47
				c2.53-2.53,2.53-6.65,0-9.19c-2.54-2.54-6.66-2.54-9.2,0c-2.54,2.54-2.54,6.66,0,9.19c1.27,1.27,2.94,1.91,4.6,1.91
				S141.07,395.74,142.34,394.47z M123.06,413.75c2.54-2.54,2.54-6.66,0-9.2c-2.53-2.54-6.65-2.54-9.19,0
				c-2.54,2.54-2.54,6.66,0,9.2c1.27,1.27,2.93,1.9,4.6,1.9C120.13,415.65,121.79,415.02,123.06,413.75z M103.8,433.02
				c2.53-2.54,2.53-6.66,0-9.2c-2.55-2.53-6.66-2.53-9.2,0c-2.54,2.54-2.54,6.66,0,9.2c1.27,1.27,2.93,1.9,4.6,1.9
				C100.86,434.92,102.52,434.29,103.8,433.02z"/>
			<path style="fill:#89B0D3;" d="M230.72,222.26L53.64,399.34c-3.55,3.55-9.33,3.55-12.88,0l-4.98-4.98
				c-6.89-6.9-6.89-18.11,0-25.01l157.64-157.63c3.69-3.69,8.53-5.54,13.38-5.54c4.85,0,9.69,1.85,13.38,5.54L230.72,222.26z
				 M208.68,229.57c2.54-2.54,2.54-6.66,0-9.2c-2.54-2.53-6.66-2.53-9.19,0c-2.54,2.54-2.54,6.66,0,9.2c1.27,1.27,2.93,1.9,4.59,1.9
				C205.75,231.47,207.41,230.84,208.68,229.57z M189.41,248.84c2.54-2.54,2.54-6.66,0-9.19c-2.54-2.54-6.66-2.54-9.19,0
				c-2.54,2.53-2.54,6.65,0,9.19c1.27,1.27,2.93,1.9,4.59,1.9C186.47,250.74,188.14,250.11,189.41,248.84z M170.14,268.11
				c2.54-2.54,2.54-6.66,0-9.19c-2.54-2.54-6.66-2.54-9.19,0c-2.54,2.53-2.54,6.65,0,9.19c1.27,1.27,2.93,1.9,4.59,1.9
				S168.87,269.38,170.14,268.11z M150.87,287.38c2.53-2.54,2.53-6.66,0-9.19c-2.54-2.54-6.66-2.54-9.2,0
				c-2.53,2.53-2.53,6.65,0,9.19c1.27,1.27,2.94,1.9,4.6,1.9S149.6,288.65,150.87,287.38z M131.6,306.65c2.53-2.54,2.53-6.65,0-9.19
				c-2.54-2.54-6.66-2.54-9.2,0c-2.54,2.54-2.54,6.65,0,9.19c1.27,1.27,2.94,1.9,4.6,1.9C128.66,308.55,130.33,307.92,131.6,306.65z
				 M112.32,325.92c2.54-2.54,2.54-6.65,0-9.19c-2.53-2.54-6.65-2.54-9.19,0c-2.54,2.54-2.54,6.65,0,9.19
				c1.27,1.27,2.93,1.9,4.6,1.9C109.39,327.82,111.05,327.19,112.32,325.92z M93.05,345.19c2.54-2.54,2.54-6.65,0-9.19
				c-2.54-2.54-6.65-2.54-9.19,0s-2.54,6.65,0,9.19c1.27,1.27,2.93,1.91,4.6,1.91C90.12,347.1,91.78,346.46,93.05,345.19z
				 M73.78,364.46c2.54-2.53,2.54-6.65,0-9.19c-2.54-2.54-6.65-2.54-9.19,0c-2.54,2.54-2.54,6.66,0,9.19
				c1.27,1.27,2.93,1.91,4.6,1.91C70.85,366.37,72.51,365.73,73.78,364.46z M54.51,383.73c2.54-2.53,2.54-6.65,0-9.19
				c-2.54-2.54-6.65-2.54-9.19,0c-2.54,2.54-2.54,6.66,0,9.19c1.27,1.27,2.93,1.91,4.6,1.91C51.58,385.64,53.24,385,54.51,383.73z"
				/>
			<path style="fill:#8AD1D6;" d="M429.94,25.79c-3.02,43.5-21.71,84.99-52.76,116.05L272.93,246.08l-40.68-40.67l96.84-96.84
				c25.31-12.4,53.25-33.23,78.79-58.77C415.7,41.98,423.08,33.95,429.94,25.79z M343.58,121.06c2.54-2.53,2.54-6.65,0.01-9.19
				c-2.54-2.54-6.66-2.54-9.2,0l-18,18c-2.54,2.54-2.54,6.65,0,9.19c1.27,1.27,2.93,1.91,4.6,1.91c1.66,0,3.33-0.64,4.59-1.91
				L343.58,121.06z"/>
			<path style="fill:#333333;" d="M443.25,6.52c1.9,53.79-18.84,106.46-56.88,144.51L281.22,256.18
				c6.65,12.12,4.85,27.67-5.41,37.93L118.18,451.74c-5.8,5.8-13.5,8.99-21.7,8.99c-8.19,0-15.9-3.19-21.69-8.99l-4.98-4.98
				c-8.62-8.61-8.62-22.64,0-31.25l140.88-140.88l-6.98-6.98L62.83,408.53c-4.31,4.31-9.97,6.46-15.63,6.46s-11.32-2.15-15.63-6.46
				l-4.98-4.98c-5.79-5.8-8.98-13.5-8.98-21.7c0-8.19,3.19-15.9,8.98-21.69l157.64-157.64c10.25-10.25,25.81-12.05,37.93-5.4
				l98.51-98.51c0.52-0.52,1.12-0.95,1.78-1.26c12.14-5.86,24.99-13.83,37.9-23.44c12.92-9.61,25.9-20.87,38.34-33.31
				c12.18-12.17,23.23-24.87,32.86-37.74c1.65-2.21,4.51-3.14,7.14-2.31C441.32,1.37,443.15,3.77,443.25,6.52z M377.18,141.84
				c31.05-31.06,49.74-72.55,52.76-116.05c-6.86,8.16-14.24,16.19-22.06,24.01c-25.54,25.54-53.48,46.37-78.79,58.77l-96.84,96.84
				l40.68,40.67L377.18,141.84z M266.62,284.92c7.38-7.38,7.38-19.39,0-26.76l-10.04-10.05l-0.5-0.49L79,424.7
				c-1.72,1.72-2.67,4-2.67,6.44c0,2.43,0.95,4.71,2.67,6.43l4.98,4.98c6.89,6.9,18.11,6.9,25,0L266.62,284.92z M219.88,265.44
				l27.01-27.01l-6.98-6.98l-27.01,27.01L219.88,265.44z M53.64,399.34l177.08-177.08l-10.54-10.54c-3.69-3.69-8.53-5.54-13.38-5.54
				c-4.85,0-9.69,1.85-13.38,5.54L35.78,369.35c-6.89,6.9-6.89,18.11,0,25.01l4.98,4.98C44.31,402.89,50.09,402.89,53.64,399.34z"/>
			<path style="fill:#333333;" d="M343.59,111.87c2.53,2.54,2.53,6.66-0.01,9.19l-18,18c-1.26,1.27-2.93,1.91-4.59,1.91
				c-1.67,0-3.33-0.64-4.6-1.91c-2.54-2.54-2.54-6.65,0-9.19l18-18C336.93,109.33,341.05,109.33,343.59,111.87z"/>
			<path style="fill:#333333;" d="M257.96,269.66c2.54,2.54,2.54,6.65,0,9.19c-1.27,1.27-2.93,1.9-4.59,1.9
				c-1.67,0-3.33-0.63-4.6-1.9c-2.54-2.54-2.54-6.65,0-9.19C251.31,267.12,255.42,267.12,257.96,269.66z"/>
			<path style="fill:#333333;" d="M238.69,288.93c2.54,2.54,2.54,6.65,0,9.19c-1.27,1.27-2.93,1.9-4.6,1.9
				c-1.66,0-3.32-0.63-4.59-1.9c-2.54-2.54-2.54-6.65,0-9.19C232.04,286.39,236.15,286.39,238.69,288.93z"/>
			<path style="fill:#333333;" d="M219.42,308.2c2.54,2.54,2.54,6.65,0,9.19c-1.27,1.27-2.93,1.9-4.6,1.9
				c-1.66,0-3.32-0.63-4.59-1.9c-2.54-2.54-2.54-6.65,0-9.19C212.77,305.66,216.88,305.66,219.42,308.2z"/>
			<path style="fill:#333333;" d="M208.68,220.37c2.54,2.54,2.54,6.66,0,9.2c-1.27,1.27-2.93,1.9-4.6,1.9
				c-1.66,0-3.32-0.63-4.59-1.9c-2.54-2.54-2.54-6.66,0-9.2C202.02,217.84,206.14,217.84,208.68,220.37z"/>
			<path style="fill:#333333;" d="M200.15,327.47c2.54,2.54,2.54,6.65,0,9.19c-1.27,1.27-2.93,1.9-4.6,1.9
				c-1.66,0-3.33-0.63-4.6-1.9c-2.53-2.54-2.53-6.65,0-9.19C193.5,324.93,197.61,324.93,200.15,327.47z"/>
			<path style="fill:#333333;" d="M189.41,239.65c2.54,2.53,2.54,6.65,0,9.19c-1.27,1.27-2.94,1.9-4.6,1.9
				c-1.66,0-3.32-0.63-4.59-1.9c-2.54-2.54-2.54-6.66,0-9.19C182.75,237.11,186.87,237.11,189.41,239.65z"/>
			<path style="fill:#333333;" d="M180.88,346.74c2.54,2.54,2.54,6.65,0,9.19c-1.27,1.27-2.93,1.91-4.6,1.91
				c-1.66,0-3.32-0.64-4.59-1.91c-2.54-2.54-2.54-6.65,0-9.19C174.22,344.2,178.34,344.2,180.88,346.74z"/>
			<path style="fill:#333333;" d="M170.14,258.92c2.54,2.53,2.54,6.65,0,9.19c-1.27,1.27-2.94,1.9-4.6,1.9s-3.32-0.63-4.59-1.9
				c-2.54-2.54-2.54-6.66,0-9.19C163.48,256.38,167.6,256.38,170.14,258.92z"/>
			<path style="fill:#333333;" d="M161.61,366.01c2.53,2.54,2.53,6.65,0,9.19c-1.27,1.27-2.94,1.91-4.6,1.91s-3.33-0.64-4.6-1.91
				c-2.53-2.54-2.53-6.65,0-9.19C154.95,363.47,159.07,363.47,161.61,366.01z"/>
			<path style="fill:#333333;" d="M150.87,278.19c2.53,2.53,2.53,6.65,0,9.19c-1.27,1.27-2.94,1.9-4.6,1.9s-3.33-0.63-4.6-1.9
				c-2.53-2.54-2.53-6.66,0-9.19C144.21,275.65,148.33,275.65,150.87,278.19z"/>
			<path style="fill:#333333;" d="M142.34,385.28c2.53,2.54,2.53,6.66,0,9.19c-1.27,1.27-2.94,1.91-4.6,1.91s-3.33-0.64-4.6-1.91
				c-2.54-2.53-2.54-6.65,0-9.19C135.68,382.74,139.8,382.74,142.34,385.28z"/>
			<path style="fill:#333333;" d="M131.6,297.46c2.53,2.54,2.53,6.65,0,9.19c-1.27,1.27-2.94,1.9-4.6,1.9c-1.66,0-3.33-0.63-4.6-1.9
				c-2.54-2.54-2.54-6.65,0-9.19C124.94,294.92,129.06,294.92,131.6,297.46z"/>
			<path style="fill:#333333;" d="M123.06,404.55c2.54,2.54,2.54,6.66,0,9.2c-1.27,1.27-2.93,1.9-4.59,1.9
				c-1.67,0-3.33-0.63-4.6-1.9c-2.54-2.54-2.54-6.66,0-9.2C116.41,402.01,120.53,402.01,123.06,404.55z"/>
			<path style="fill:#333333;" d="M112.32,316.73c2.54,2.54,2.54,6.65,0,9.19c-1.27,1.27-2.93,1.9-4.59,1.9
				c-1.67,0-3.33-0.63-4.6-1.9c-2.54-2.54-2.54-6.65,0-9.19C105.67,314.19,109.79,314.19,112.32,316.73z"/>
			<path style="fill:#333333;" d="M103.8,423.82c2.53,2.54,2.53,6.66,0,9.2c-1.28,1.27-2.94,1.9-4.6,1.9c-1.67,0-3.33-0.63-4.6-1.9
				c-2.54-2.54-2.54-6.66,0-9.2C97.14,421.29,101.25,421.29,103.8,423.82z"/>
			<path style="fill:#333333;" d="M93.05,336c2.54,2.54,2.54,6.65,0,9.19c-1.27,1.27-2.93,1.91-4.59,1.91
				c-1.67,0-3.33-0.64-4.6-1.91c-2.54-2.54-2.54-6.65,0-9.19S90.51,333.46,93.05,336z"/>
			<path style="fill:#333333;" d="M73.78,355.27c2.54,2.54,2.54,6.66,0,9.19c-1.27,1.27-2.93,1.91-4.59,1.91
				c-1.67,0-3.33-0.64-4.6-1.91c-2.54-2.53-2.54-6.65,0-9.19C67.13,352.73,71.24,352.73,73.78,355.27z"/>
			<path style="fill:#333333;" d="M54.51,374.54c2.54,2.54,2.54,6.66,0,9.19c-1.27,1.27-2.93,1.91-4.59,1.91
				c-1.67,0-3.33-0.64-4.6-1.91c-2.54-2.53-2.54-6.65,0-9.19C47.86,372,51.97,372,54.51,374.54z"/>
		</g>
		<g>
		</g>
	</g>
</g>
</svg>